<?xml version="1.0" encoding="UTF-8"?>
<!-- Generator: Adobe Illustrator 15.1.0, SVG Export Plug-In . SVG Version: 6.00 Build 0)  -->
<!DOCTYPE svg PUBLIC "-//W3C//DTD SVG 1.1//EN" "http://www.w3.org/Graphics/SVG/1.1/DTD/svg11.dtd">
<svg version="1.1" id="Layer_1" xmlns="http://www.w3.org/2000/svg" xmlns:xlink="http://www.w3.org/1999/xlink" x="0px" y="0px" width="100%" height="100%" viewBox="0 26.842 70 16.337" enable-background="new 0 26.842 70 16.337" xml:space="preserve">
<g>
	<path fill="#1B325E" d="M20.852,38.352l1.209-6.948l2.136,0.006c0.752,0.006,1.316,0.169,1.692,0.489   c0.376,0.326,0.545,0.771,0.501,1.341c-0.057,0.677-0.47,1.184-1.234,1.522c0.288,0.101,0.507,0.289,0.664,0.558   c0.157,0.27,0.226,0.595,0.201,0.972c-0.044,0.639-0.301,1.141-0.765,1.51c-0.463,0.369-1.084,0.551-1.842,0.551H20.852z    M22.575,35.213l-0.376,2.174l1.234,0.007c0.37,0,0.689-0.101,0.952-0.294c0.263-0.195,0.414-0.471,0.464-0.814   c0.044-0.326-0.006-0.584-0.15-0.771c-0.144-0.182-0.382-0.282-0.714-0.294L22.575,35.213z M22.732,34.33l1.084,0.006   c0.388,0,0.708-0.094,0.952-0.276c0.245-0.182,0.389-0.432,0.433-0.752c0.081-0.595-0.22-0.902-0.902-0.927l-1.228-0.006   L22.732,34.33z"/>
	<path fill="#1B325E" d="M29.856,35.677h-1.329l-0.47,2.675H26.88l1.209-6.948l2.193,0.006c0.752,0,1.335,0.182,1.736,0.545   c0.401,0.363,0.576,0.871,0.52,1.516c-0.038,0.451-0.182,0.839-0.451,1.166c-0.263,0.332-0.633,0.589-1.115,0.777l1.027,2.87   l-0.006,0.068h-1.253L29.856,35.677z M28.69,34.706l1.141,0.012c0.413,0,0.751-0.106,1.027-0.319s0.438-0.507,0.482-0.877   c0.05-0.357-0.019-0.633-0.188-0.827c-0.175-0.194-0.438-0.294-0.796-0.307l-1.259-0.006L28.69,34.706z"/>
	<path fill="#1B325E" d="M34.091,38.352H32.92l1.209-6.948h1.172L34.091,38.352z"/>
	<path fill="#1B325E" d="M40.934,38.352h-1.141l-2.174-4.98l-0.865,4.98h-1.178l1.209-6.948h1.141l2.174,5l0.871-5h1.172   L40.934,38.352z"/>
	<path fill="#1B325E" d="M44.855,35.357l-0.952,0.872l-0.37,2.117h-1.178l1.209-6.948h1.179l-0.558,3.195l0.732-0.758l2.4-2.437   h1.51l-3.096,3.139l1.949,3.815h-1.316L44.855,35.357z"/>
	<path fill="#1B325E" d="M51.09,31.403l1.016,5.319l2.857-5.319h1.547l-1.203,6.948h-1.172l0.408-2.355l0.613-2.901l-2.863,5.256   h-0.852l-1.065-5.407l-0.433,3.176l-0.389,2.23h-1.172l1.21-6.948H51.09z"/>
	<path fill="#1B325E" d="M60.883,36.735h-2.6l-0.827,1.616h-1.272l3.754-6.948h1.059l1.348,6.948h-1.185L60.883,36.735z    M58.778,35.758h1.948l-0.47-2.875L58.778,35.758z"/>
	<path fill="#1B325E" d="M68.527,38.352h-1.141l-2.174-4.98l-0.865,4.98H63.17l1.21-6.948h1.14l2.175,5l0.87-5h1.172L68.527,38.352z   "/>
	<path fill="#1B325E" d="M32.938,41.115c0.15,0.156,0.226,0.376,0.226,0.664c0,0.289-0.075,0.508-0.226,0.664   s-0.363,0.232-0.645,0.232h-0.765v-1.793h0.765C32.575,40.883,32.788,40.959,32.938,41.115z M32.582,42.187   c0.069-0.087,0.106-0.226,0.106-0.407s-0.038-0.319-0.106-0.407c-0.069-0.087-0.182-0.138-0.332-0.138h-0.245v1.09h0.245   C32.4,42.324,32.513,42.281,32.582,42.187z"/>
	<path fill="#1B325E" d="M37.093,42.313v0.363h-1.435v-1.793h1.396v0.364h-0.927v0.363h0.739v0.339h-0.739v0.369L37.093,42.313z"/>
	<path fill="#1B325E" d="M40.02,41.24v0.383h0.738v0.363H40.02v0.689h-0.471v-1.793h1.397v0.364L40.02,41.24z"/>
	<path fill="#1B325E" d="M44.824,42.313v0.363H43.39v-1.793h1.397v0.364h-0.928v0.363h0.74v0.339h-0.74v0.369L44.824,42.313z"/>
	<path fill="#1B325E" d="M48.897,42.676h-0.521l-0.558-0.972l-0.138-0.27l0.013,0.339v0.902h-0.413v-1.793h0.52l0.558,0.972   l0.138,0.27l-0.012-0.339v-0.908h0.413V42.676z"/>
	<path fill="#1B325E" d="M52.606,40.934c0.119,0.051,0.231,0.131,0.339,0.244l-0.264,0.307c-0.063-0.087-0.131-0.156-0.213-0.199   c-0.082-0.045-0.176-0.063-0.288-0.063c-0.095,0-0.169,0.019-0.22,0.05c-0.05,0.031-0.075,0.076-0.075,0.132   c0,0.044,0.025,0.081,0.081,0.112c0.057,0.025,0.145,0.057,0.276,0.076c0.251,0.043,0.426,0.112,0.532,0.2   c0.107,0.088,0.156,0.206,0.156,0.37c0,0.112-0.031,0.213-0.1,0.294c-0.063,0.081-0.156,0.144-0.27,0.188   c-0.113,0.043-0.244,0.063-0.389,0.063c-0.2,0-0.369-0.025-0.494-0.076c-0.126-0.049-0.238-0.125-0.332-0.23l0.238-0.326   c0.068,0.1,0.15,0.169,0.237,0.207c0.088,0.037,0.194,0.063,0.319,0.063c0.101,0,0.176-0.013,0.227-0.045   c0.049-0.024,0.074-0.068,0.074-0.118c0-0.044-0.025-0.075-0.081-0.101c-0.057-0.025-0.144-0.05-0.27-0.075   c-0.157-0.031-0.282-0.069-0.382-0.112c-0.101-0.045-0.182-0.101-0.232-0.176c-0.057-0.075-0.081-0.163-0.081-0.275   c0-0.113,0.031-0.213,0.094-0.301s0.15-0.156,0.27-0.207s0.257-0.075,0.413-0.075C52.337,40.852,52.487,40.877,52.606,40.934z"/>
	<path fill="#1B325E" d="M56.823,42.313v0.363h-1.435v-1.793h1.396v0.364h-0.927v0.363h0.739v0.339h-0.739v0.369L56.823,42.313z"/>
</g>
<path fill="#CB2027" d="M21.272,40.746l0.313,0.633l0.702,0.1l-0.508,0.495l0.119,0.695l-0.626-0.325l-0.626,0.325l0.119-0.695  l-0.507-0.495l0.702-0.1L21.272,40.746z"/>
<path fill="#CB2027" d="M24.624,40.746l0.313,0.633l0.702,0.1l-0.508,0.495l0.119,0.695l-0.626-0.325l-0.626,0.325l0.119-0.695  l-0.508-0.495l0.702-0.1L24.624,40.746z"/>
<path fill="#CB2027" d="M27.92,40.746l0.313,0.633l0.702,0.1l-0.508,0.495l0.119,0.695l-0.626-0.325l-0.626,0.325l0.119-0.695  l-0.507-0.495l0.702-0.1L27.92,40.746z"/>
<path fill="#1086C7" d="M14.962,42.212L2.657,33.578l1.266,3.596L14.962,42.212z"/>
<path fill="#1086C7" d="M15.075,42.362L4.104,37.663l0.577,1.636l10.595,3.665C15.27,42.964,15.614,42.606,15.075,42.362"/>
<path fill="#1086C7" d="M15.407,40.57l-1.422-1.291l-0.169-0.156l-0.345-0.313l-1.854-1.679l-0.232-0.213l-1.924-1.743l-9.185-8.333  l1.83,5.182l0.375,1.027l4.681,3.346l1.967,1.409l0.257,0.182l1.711,1.223l0.357,0.256l1.861,1.329l2.011,1.44  c0,0,0.445,0.339-0.038,0.94C15.219,43.246,17.312,42.205,15.407,40.57"/>
<path fill="#FFFFFF" d="M12.513,34.536l0.658,0.332l-0.438-0.595l0.514-0.526l-0.389,0.131l-0.708,0.827l-0.063,0.432L12.513,34.536  z"/>
<path fill="#FFFFFF" d="M14.637,32.105l0.664,0.326l-0.438-0.589l0.514-0.526l-0.432,0.144l-0.665,0.771l-0.069,0.476L14.637,32.105  z"/>
<path fill="#1386C7" d="M13.039,38.201l0.395,0.396l1.942-8.371l-4.117,6.203L13.039,38.201z"/>
<path fill="#1386C7" d="M13.039,38.201l0.288-1.184l1.635-5.953l-1.842,1.642l-0.457,0.765l-1.723,2.701L13.039,38.201z"/>
</svg>