<!DOCTYPE svg PUBLIC "-//W3C//DTD SVG 20010904//EN" "http://www.w3.org/TR/2001/REC-SVG-20010904/DTD/svg10.dtd">
<svg version="1.0" xmlns="http://www.w3.org/2000/svg" width="71px" height="73px" viewBox="0 0 710 730" preserveAspectRatio="xMidYMid meet">
<g id="layer101" fill="#2c5da3" stroke="none">
 <path d="M320 710 c-161 -29 -259 -115 -296 -262 -36 -141 23 -305 135 -378 54 -34 153 -60 231 -59 40 0 223 22 236 29 1 0 -1 22 -4 49 -4 41 1 60 29 117 31 63 34 77 34 159 0 82 -3 97 -32 156 -21 42 -33 81 -33 107 0 35 -4 44 -28 56 -60 31 -179 42 -272 26z m50 -70 l0 -30 -67 0 c-78 0 -75 12 9 41 29 10 54 18 56 19 1 0 2 -13 2 -30z m-12 -57 c-17 -4 -18 -24 -18 -228 0 -204 1 -224 18 -228 9 -3 -5 -5 -33 -6 l-50 -1 3 229 3 230 -38 4 c-21 2 0 4 47 4 47 0 77 -1 68 -4z m-178 -245 c-1 -221 -1 -223 -20 -200 -10 13 -29 49 -40 80 -32 84 -25 188 19 276 18 36 34 66 37 66 2 0 4 -100 4 -222z m190 -269 c0 -19 -4 -20 -42 -14 -24 4 -56 13 -73 20 -28 13 -26 13 43 14 67 1 72 -1 72 -20z"/>
 </g>
<g id="layer102" fill="#4f7eba" stroke="none">
 <path d="M393 673 c-19 -4 -23 -11 -23 -44 0 -39 0 -39 40 -39 48 0 92 -20 114 -52 15 -21 16 -19 16 45 0 61 -2 68 -22 76 -32 11 -99 19 -125 14z"/>
 <path d="M575 658 c-11 -6 -22 -12 -23 -14 -2 -1 10 -18 28 -36 31 -32 32 -36 34 -130 2 -107 1 -108 -62 -108 -20 0 -55 -8 -77 -17 l-41 -17 29 -25 c19 -18 30 -39 34 -68 11 -80 -44 -123 -159 -123 l-63 0 3 159 3 160 -51 -22 -50 -21 0 -140 c-1 -140 -1 -141 -20 -118 -49 59 -74 197 -51 279 l9 31 -51 -26 -52 -27 2 -60 c7 -158 102 -274 253 -309 80 -19 148 -19 265 -1 50 8 90 14 91 15 1 0 -1 22 -4 49 -4 41 1 60 29 117 31 63 34 77 34 159 0 82 -3 97 -32 156 -21 43 -33 81 -33 108 0 43 -9 49 -45 29z m-205 -589 c0 -19 -4 -20 -42 -14 -24 4 -56 13 -73 20 -28 13 -26 13 43 14 67 1 72 -1 72 -20z m80 -29 c-20 -13 -70 -13 -70 0 0 6 19 10 43 10 31 0 38 -3 27 -10z"/>
 <path d="M370 530 c0 -33 -5 -50 -15 -54 -13 -4 -15 -34 -15 -176 0 -189 1 -191 66 -151 68 42 69 139 1 176 -44 24 -47 35 -9 35 53 0 111 56 112 108 0 33 -58 92 -102 101 l-38 9 0 -48z"/>
 </g>
<g id="layer103" fill="#8fafd6" stroke="none">
 <path d="M370 635 c0 -31 3 -35 25 -35 21 0 98 31 115 47 12 11 -30 23 -82 23 l-58 0 0 -35z"/>
 <path d="M638 509 c-13 -7 -18 -23 -18 -58 0 -50 10 -65 45 -74 11 -2 -17 -5 -61 -6 -57 -1 -95 -7 -125 -20 -35 -16 -40 -21 -26 -27 23 -9 47 -56 47 -93 0 -77 -48 -111 -157 -111 l-68 0 3 85 3 84 -50 -21 -51 -21 0 -66 -1 -66 -19 23 c-29 34 -60 127 -60 177 0 25 -2 45 -5 45 -3 0 -21 -7 -40 -14 -29 -13 -35 -20 -35 -45 0 -40 26 -106 63 -159 58 -81 176 -134 222 -98 l20 15 -20 1 c-11 1 -33 7 -50 15 -29 13 -27 13 43 14 67 1 72 0 72 -20 0 -20 4 -21 53 -16 28 3 63 8 77 11 14 4 7 -2 -16 -13 -54 -25 -105 -36 -113 -23 -4 7 -15 6 -31 -3 -23 -13 -21 -14 40 -14 61 0 237 22 243 30 2 2 1 28 -1 57 -4 50 -5 52 -22 37 -16 -15 -17 -14 -6 20 10 31 12 33 23 19 11 -15 16 -10 40 42 24 51 28 71 28 149 -1 105 -19 160 -47 144z"/>
 <path d="M431 412 c-65 -32 -82 -59 -30 -48 40 8 75 29 89 56 14 26 7 25 -59 -8z"/>
 <path d="M347 323 c-12 -11 -8 -193 3 -193 18 0 64 27 84 48 18 21 24 72 12 109 -10 31 -80 56 -99 36z"/>
 </g>
<g id="layer104" fill="#c2d7eb" stroke="none">
 <path d="M73 218 c-27 -13 -29 -30 -8 -48 22 -18 65 12 58 40 -6 22 -17 24 -50 8z"/>
 <path d="M485 94 c-66 -32 -81 -42 -55 -38 55 9 116 33 135 54 10 11 16 22 14 24 -2 1 -44 -16 -94 -40z"/>
 <path d="M330 100 c-12 -8 -9 -10 13 -10 15 0 27 5 27 10 0 13 -20 13 -40 0z"/>
 </g>

</svg>